<mxfile host="app.diagrams.net" agent="Mozilla/5.0 (Windows NT 10.0; Win64; x64) AppleWebKit/537.36 (KHTML, like Gecko) Chrome/135.0.0.0 Safari/537.36" version="26.2.13">
  <diagram name="Page-1" id="-hFuFtUVmPVBydgRK3_J">
    <mxGraphModel grid="1" page="1" gridSize="10" guides="1" tooltips="1" connect="1" arrows="1" fold="1" pageScale="1" pageWidth="850" pageHeight="1100" math="0" shadow="0">
      <root>
        <mxCell id="0" />
        <mxCell id="1" parent="0" />
        <mxCell id="cQ8KKbzieFS9n6zauyxS-1" value="&lt;div style=&quot;color: rgb(59, 59, 59); background-color: rgb(255, 255, 255); font-family: Consolas, &amp;quot;Courier New&amp;quot;, monospace; font-size: 14px; line-height: 19px; white-space: pre;&quot;&gt;&lt;span style=&quot;color: #a31515;&quot;&gt;scalable-vpc(&lt;/span&gt;&lt;span style=&quot;color: rgb(163, 21, 21);&quot;&gt;10.0.0.0/16&lt;/span&gt;&lt;span style=&quot;color: rgb(163, 21, 21);&quot;&gt;)&lt;/span&gt;&lt;/div&gt;" style="points=[[0,0],[0.25,0],[0.5,0],[0.75,0],[1,0],[1,0.25],[1,0.5],[1,0.75],[1,1],[0.75,1],[0.5,1],[0.25,1],[0,1],[0,0.75],[0,0.5],[0,0.25]];outlineConnect=0;gradientColor=none;html=1;whiteSpace=wrap;fontSize=12;fontStyle=0;container=1;pointerEvents=0;collapsible=0;recursiveResize=0;shape=mxgraph.aws4.group;grIcon=mxgraph.aws4.group_vpc2;strokeColor=#8C4FFF;fillColor=none;verticalAlign=top;align=left;spacingLeft=30;fontColor=#AAB7B8;dashed=0;movable=0;resizable=0;rotatable=0;deletable=0;editable=0;locked=1;connectable=0;" vertex="1" parent="1">
          <mxGeometry x="-850" y="-360" width="1700" height="1360" as="geometry" />
        </mxCell>
        <mxCell id="cQ8KKbzieFS9n6zauyxS-2" value="&lt;div style=&quot;color: rgb(59, 59, 59); background-color: rgb(255, 255, 255); font-family: Consolas, &amp;quot;Courier New&amp;quot;, monospace; font-size: 14px; line-height: 19px; white-space: pre;&quot;&gt;&lt;span style=&quot;color: #a31515;&quot;&gt;us-east-1a&lt;/span&gt;&lt;/div&gt;" style="fillColor=none;strokeColor=#147EBA;dashed=1;verticalAlign=top;fontStyle=0;fontColor=#147EBA;whiteSpace=wrap;html=1;movable=0;resizable=0;rotatable=0;deletable=0;editable=0;locked=1;connectable=0;" vertex="1" parent="cQ8KKbzieFS9n6zauyxS-1">
          <mxGeometry x="50" y="80" width="680" height="1240" as="geometry" />
        </mxCell>
        <mxCell id="cQ8KKbzieFS9n6zauyxS-3" value="&lt;div style=&quot;color: rgb(59, 59, 59); background-color: rgb(255, 255, 255); font-family: Consolas, &amp;quot;Courier New&amp;quot;, monospace; font-size: 14px; line-height: 19px; white-space: pre;&quot;&gt;&lt;span style=&quot;color: #a31515;&quot;&gt;us-east-1b&lt;/span&gt;&lt;/div&gt;" style="fillColor=none;strokeColor=#147EBA;dashed=1;verticalAlign=top;fontStyle=0;fontColor=#147EBA;whiteSpace=wrap;html=1;movable=0;resizable=0;rotatable=0;deletable=0;editable=0;locked=1;connectable=0;" vertex="1" parent="cQ8KKbzieFS9n6zauyxS-1">
          <mxGeometry x="970" y="80" width="680" height="1240" as="geometry" />
        </mxCell>
        <mxCell id="cQ8KKbzieFS9n6zauyxS-7" value="&lt;div style=&quot;background-color: rgb(255, 255, 255); line-height: 19px; color: rgb(59, 59, 59);&quot;&gt;&lt;font face=&quot;Consolas, Courier New, monospace&quot; color=&quot;#a31515&quot;&gt;&lt;span style=&quot;font-size: 14px; white-space: pre;&quot;&gt;scalable-public-subnet-1(10.0.1.0/24)&lt;/span&gt;&lt;/font&gt;&lt;/div&gt;" style="points=[[0,0],[0.25,0],[0.5,0],[0.75,0],[1,0],[1,0.25],[1,0.5],[1,0.75],[1,1],[0.75,1],[0.5,1],[0.25,1],[0,1],[0,0.75],[0,0.5],[0,0.25]];outlineConnect=0;gradientColor=none;html=1;whiteSpace=wrap;fontSize=12;fontStyle=0;container=1;pointerEvents=0;collapsible=0;recursiveResize=0;shape=mxgraph.aws4.group;grIcon=mxgraph.aws4.group_security_group;grStroke=0;strokeColor=#7AA116;fillColor=#F2F6E8;verticalAlign=top;align=left;spacingLeft=30;fontColor=#248814;dashed=0;movable=0;resizable=0;rotatable=0;deletable=0;editable=0;locked=1;connectable=0;" vertex="1" parent="1">
          <mxGeometry x="-720" y="-120" width="520" height="440" as="geometry" />
        </mxCell>
        <mxCell id="cQ8KKbzieFS9n6zauyxS-8" value="&lt;div style=&quot;color: rgb(59, 59, 59); background-color: rgb(255, 255, 255); font-family: Consolas, &amp;quot;Courier New&amp;quot;, monospace; font-size: 14px; line-height: 19px; white-space: pre;&quot;&gt;&lt;span style=&quot;color: #a31515;&quot;&gt;scalable-public-subnet-2(&lt;/span&gt;&lt;span style=&quot;color: rgb(163, 21, 21);&quot;&gt;10.0.3.0/24&lt;/span&gt;&lt;span style=&quot;color: rgb(163, 21, 21);&quot;&gt;)&lt;/span&gt;&lt;/div&gt;" style="points=[[0,0],[0.25,0],[0.5,0],[0.75,0],[1,0],[1,0.25],[1,0.5],[1,0.75],[1,1],[0.75,1],[0.5,1],[0.25,1],[0,1],[0,0.75],[0,0.5],[0,0.25]];outlineConnect=0;gradientColor=none;html=1;whiteSpace=wrap;fontSize=12;fontStyle=0;container=1;pointerEvents=0;collapsible=0;recursiveResize=0;shape=mxgraph.aws4.group;grIcon=mxgraph.aws4.group_security_group;grStroke=0;strokeColor=#7AA116;fillColor=#F2F6E8;verticalAlign=top;align=left;spacingLeft=30;fontColor=#248814;dashed=0;movable=0;resizable=0;rotatable=0;deletable=0;editable=0;locked=1;connectable=0;" vertex="1" parent="1">
          <mxGeometry x="200" y="-120" width="520" height="440" as="geometry" />
        </mxCell>
        <mxCell id="cQ8KKbzieFS9n6zauyxS-9" value="&lt;div style=&quot;color: rgb(59, 59, 59); background-color: rgb(255, 255, 255); font-family: Consolas, &amp;quot;Courier New&amp;quot;, monospace; font-size: 14px; line-height: 19px; white-space: pre;&quot;&gt;&lt;span style=&quot;color: #a31515;&quot;&gt;scalable-private-subnet-1(&lt;/span&gt;&lt;span style=&quot;color: rgb(163, 21, 21);&quot;&gt;10.0.2.0/24&lt;/span&gt;&lt;span style=&quot;color: rgb(163, 21, 21);&quot;&gt;)&lt;/span&gt;&lt;/div&gt;" style="points=[[0,0],[0.25,0],[0.5,0],[0.75,0],[1,0],[1,0.25],[1,0.5],[1,0.75],[1,1],[0.75,1],[0.5,1],[0.25,1],[0,1],[0,0.75],[0,0.5],[0,0.25]];outlineConnect=0;gradientColor=none;html=1;whiteSpace=wrap;fontSize=12;fontStyle=0;container=1;pointerEvents=0;collapsible=0;recursiveResize=0;shape=mxgraph.aws4.group;grIcon=mxgraph.aws4.group_security_group;grStroke=0;strokeColor=#00A4A6;fillColor=#E6F6F7;verticalAlign=top;align=left;spacingLeft=30;fontColor=#147EBA;dashed=0;movable=0;resizable=0;rotatable=0;deletable=0;editable=0;locked=1;connectable=0;" vertex="1" parent="1">
          <mxGeometry x="-720" y="520" width="520" height="400" as="geometry" />
        </mxCell>
        <mxCell id="cQ8KKbzieFS9n6zauyxS-10" value="&lt;div style=&quot;color: rgb(59, 59, 59); background-color: rgb(255, 255, 255); font-family: Consolas, &amp;quot;Courier New&amp;quot;, monospace; font-size: 14px; line-height: 19px; white-space: pre;&quot;&gt;&lt;span style=&quot;color: #a31515;&quot;&gt;scalable-private-subnet-2(&lt;/span&gt;&lt;span style=&quot;color: rgb(163, 21, 21);&quot;&gt;10.0.4.0/24&lt;/span&gt;&lt;span style=&quot;color: rgb(163, 21, 21);&quot;&gt;)&lt;/span&gt;&lt;/div&gt;" style="points=[[0,0],[0.25,0],[0.5,0],[0.75,0],[1,0],[1,0.25],[1,0.5],[1,0.75],[1,1],[0.75,1],[0.5,1],[0.25,1],[0,1],[0,0.75],[0,0.5],[0,0.25]];outlineConnect=0;gradientColor=none;html=1;whiteSpace=wrap;fontSize=12;fontStyle=0;container=1;pointerEvents=0;collapsible=0;recursiveResize=0;shape=mxgraph.aws4.group;grIcon=mxgraph.aws4.group_security_group;grStroke=0;strokeColor=#00A4A6;fillColor=#E6F6F7;verticalAlign=top;align=left;spacingLeft=30;fontColor=#147EBA;dashed=0;movable=0;resizable=0;rotatable=0;deletable=0;editable=0;locked=1;connectable=0;" vertex="1" parent="1">
          <mxGeometry x="200" y="520" width="520" height="400" as="geometry" />
        </mxCell>
        <mxCell id="cQ8KKbzieFS9n6zauyxS-11" value="" style="sketch=0;outlineConnect=0;fontColor=#232F3E;gradientColor=none;fillColor=#8C4FFF;strokeColor=none;dashed=0;verticalLabelPosition=bottom;verticalAlign=top;align=center;html=1;fontSize=12;fontStyle=0;aspect=fixed;pointerEvents=1;shape=mxgraph.aws4.internet_gateway;movable=0;resizable=0;rotatable=0;deletable=0;editable=0;locked=1;connectable=0;" vertex="1" parent="1">
          <mxGeometry x="-39" y="-410" width="78" height="78" as="geometry" />
        </mxCell>
        <mxCell id="cQ8KKbzieFS9n6zauyxS-12" value="" style="sketch=0;outlineConnect=0;fontColor=#232F3E;gradientColor=none;fillColor=#8C4FFF;strokeColor=none;dashed=0;verticalLabelPosition=bottom;verticalAlign=top;align=center;html=1;fontSize=12;fontStyle=0;aspect=fixed;pointerEvents=1;shape=mxgraph.aws4.application_load_balancer;movable=0;resizable=0;rotatable=0;deletable=0;editable=0;locked=1;connectable=0;" vertex="1" parent="1">
          <mxGeometry x="-39" y="-198" width="78" height="78" as="geometry" />
        </mxCell>
        <mxCell id="cQ8KKbzieFS9n6zauyxS-13" value="" style="html=1;endArrow=block;elbow=vertical;startArrow=block;startFill=1;endFill=1;strokeColor=#545B64;rounded=0;movable=0;resizable=0;rotatable=0;deletable=0;editable=0;locked=1;connectable=0;" edge="1" parent="1" source="cQ8KKbzieFS9n6zauyxS-12" target="cQ8KKbzieFS9n6zauyxS-11">
          <mxGeometry width="100" relative="1" as="geometry">
            <mxPoint x="-50" y="-250" as="sourcePoint" />
            <mxPoint x="50" y="-250" as="targetPoint" />
          </mxGeometry>
        </mxCell>
        <mxCell id="cQ8KKbzieFS9n6zauyxS-14" value="" style="sketch=0;points=[[0,0,0],[0.25,0,0],[0.5,0,0],[0.75,0,0],[1,0,0],[0,1,0],[0.25,1,0],[0.5,1,0],[0.75,1,0],[1,1,0],[0,0.25,0],[0,0.5,0],[0,0.75,0],[1,0.25,0],[1,0.5,0],[1,0.75,0]];outlineConnect=0;fontColor=#232F3E;fillColor=#ED7100;strokeColor=#ffffff;dashed=0;verticalLabelPosition=bottom;verticalAlign=top;align=center;html=1;fontSize=12;fontStyle=0;aspect=fixed;shape=mxgraph.aws4.resourceIcon;resIcon=mxgraph.aws4.auto_scaling2;movable=0;resizable=0;rotatable=0;deletable=0;editable=0;locked=1;connectable=0;" vertex="1" parent="1">
          <mxGeometry x="-400" y="30" width="78" height="78" as="geometry" />
        </mxCell>
        <mxCell id="cQ8KKbzieFS9n6zauyxS-15" value="" style="sketch=0;points=[[0,0,0],[0.25,0,0],[0.5,0,0],[0.75,0,0],[1,0,0],[0,1,0],[0.25,1,0],[0.5,1,0],[0.75,1,0],[1,1,0],[0,0.25,0],[0,0.5,0],[0,0.75,0],[1,0.25,0],[1,0.5,0],[1,0.75,0]];outlineConnect=0;fontColor=#232F3E;fillColor=#ED7100;strokeColor=#ffffff;dashed=0;verticalLabelPosition=bottom;verticalAlign=top;align=center;html=1;fontSize=12;fontStyle=0;aspect=fixed;shape=mxgraph.aws4.resourceIcon;resIcon=mxgraph.aws4.auto_scaling2;movable=0;resizable=0;rotatable=0;deletable=0;editable=0;locked=1;connectable=0;" vertex="1" parent="1">
          <mxGeometry x="300" y="30" width="78" height="78" as="geometry" />
        </mxCell>
        <mxCell id="cQ8KKbzieFS9n6zauyxS-17" value="Auto Scaling group" style="points=[[0,0],[0.25,0],[0.5,0],[0.75,0],[1,0],[1,0.25],[1,0.5],[1,0.75],[1,1],[0.75,1],[0.5,1],[0.25,1],[0,1],[0,0.75],[0,0.5],[0,0.25]];outlineConnect=0;gradientColor=none;html=1;whiteSpace=wrap;fontSize=12;fontStyle=0;container=1;pointerEvents=0;collapsible=0;recursiveResize=0;shape=mxgraph.aws4.groupCenter;grIcon=mxgraph.aws4.group_auto_scaling_group;grStroke=1;strokeColor=#D86613;fillColor=none;verticalAlign=top;align=center;fontColor=#D86613;dashed=1;spacingTop=25;movable=0;resizable=0;rotatable=0;deletable=0;editable=0;locked=1;connectable=0;" vertex="1" parent="1">
          <mxGeometry x="-450" y="-60" width="880" height="220" as="geometry" />
        </mxCell>
        <mxCell id="cQ8KKbzieFS9n6zauyxS-16" value="ec2-sg" style="fillColor=none;strokeColor=#DD3522;verticalAlign=top;fontStyle=0;fontColor=#DD3522;whiteSpace=wrap;html=1;movable=0;resizable=0;rotatable=0;deletable=0;editable=0;locked=1;connectable=0;" vertex="1" parent="cQ8KKbzieFS9n6zauyxS-17">
          <mxGeometry x="40" y="60" width="820" height="140" as="geometry" />
        </mxCell>
        <mxCell id="cQ8KKbzieFS9n6zauyxS-30" value="EC2(Apache)" style="text;html=1;align=center;verticalAlign=middle;whiteSpace=wrap;rounded=0;movable=0;resizable=0;rotatable=0;deletable=0;editable=0;locked=1;connectable=0;" vertex="1" parent="cQ8KKbzieFS9n6zauyxS-17">
          <mxGeometry x="59" y="168" width="60" height="30" as="geometry" />
        </mxCell>
        <mxCell id="cQ8KKbzieFS9n6zauyxS-31" value="EC2(Apache)" style="text;html=1;align=center;verticalAlign=middle;whiteSpace=wrap;rounded=0;movable=0;resizable=0;rotatable=0;deletable=0;editable=0;locked=1;connectable=0;" vertex="1" parent="cQ8KKbzieFS9n6zauyxS-17">
          <mxGeometry x="760" y="168" width="60" height="30" as="geometry" />
        </mxCell>
        <mxCell id="cQ8KKbzieFS9n6zauyxS-18" value="alb-sg" style="fillColor=none;strokeColor=#DD3522;verticalAlign=top;fontStyle=0;fontColor=#DD3522;whiteSpace=wrap;html=1;movable=0;resizable=0;rotatable=0;deletable=0;editable=0;locked=1;connectable=0;" vertex="1" parent="1">
          <mxGeometry x="-60" y="-230" width="130" height="150" as="geometry" />
        </mxCell>
        <mxCell id="cQ8KKbzieFS9n6zauyxS-21" value="" style="sketch=0;outlineConnect=0;fontColor=#232F3E;gradientColor=none;fillColor=#C925D1;strokeColor=none;dashed=0;verticalLabelPosition=bottom;verticalAlign=top;align=center;html=1;fontSize=12;fontStyle=0;aspect=fixed;pointerEvents=1;shape=mxgraph.aws4.rds_instance;movable=0;resizable=0;rotatable=0;deletable=0;editable=0;locked=1;connectable=0;" vertex="1" parent="1">
          <mxGeometry x="-400" y="650" width="78" height="78" as="geometry" />
        </mxCell>
        <mxCell id="cQ8KKbzieFS9n6zauyxS-23" value="rds-sg" style="fillColor=none;strokeColor=#DD3522;verticalAlign=top;fontStyle=0;fontColor=#DD3522;whiteSpace=wrap;html=1;movable=0;resizable=0;rotatable=0;deletable=0;editable=0;locked=1;connectable=0;" vertex="1" parent="1">
          <mxGeometry x="-410" y="620" width="820" height="150" as="geometry" />
        </mxCell>
        <mxCell id="cQ8KKbzieFS9n6zauyxS-24" value="" style="edgeStyle=orthogonalEdgeStyle;html=1;endArrow=block;elbow=vertical;startArrow=block;startFill=1;endFill=1;strokeColor=#545B64;rounded=0;exitX=0.163;exitY=-0.015;exitDx=0;exitDy=0;exitPerimeter=0;entryX=0.5;entryY=1;entryDx=0;entryDy=0;movable=0;resizable=0;rotatable=0;deletable=0;editable=0;locked=1;connectable=0;" edge="1" parent="1" source="cQ8KKbzieFS9n6zauyxS-23" target="cQ8KKbzieFS9n6zauyxS-17">
          <mxGeometry width="100" relative="1" as="geometry">
            <mxPoint x="-60" y="460" as="sourcePoint" />
            <mxPoint x="40" y="460" as="targetPoint" />
          </mxGeometry>
        </mxCell>
        <mxCell id="cQ8KKbzieFS9n6zauyxS-25" value="" style="edgeStyle=orthogonalEdgeStyle;html=1;endArrow=block;elbow=vertical;startArrow=block;startFill=1;endFill=1;strokeColor=#545B64;rounded=0;entryX=0;entryY=0.5;entryDx=0;entryDy=0;movable=0;resizable=0;rotatable=0;deletable=0;editable=0;locked=1;connectable=0;" edge="1" parent="1" target="cQ8KKbzieFS9n6zauyxS-18">
          <mxGeometry width="100" relative="1" as="geometry">
            <mxPoint x="-200" y="50" as="sourcePoint" />
            <mxPoint x="40" y="460" as="targetPoint" />
            <Array as="points">
              <mxPoint x="-100" y="51" />
              <mxPoint x="-100" y="-165" />
            </Array>
          </mxGeometry>
        </mxCell>
        <mxCell id="cQ8KKbzieFS9n6zauyxS-28" value="" style="edgeStyle=orthogonalEdgeStyle;html=1;endArrow=block;elbow=vertical;startArrow=block;startFill=1;endFill=1;strokeColor=#545B64;rounded=0;exitX=1;exitY=0.5;exitDx=0;exitDy=0;movable=0;resizable=0;rotatable=0;deletable=0;editable=0;locked=1;connectable=0;" edge="1" parent="1" source="cQ8KKbzieFS9n6zauyxS-18">
          <mxGeometry width="100" relative="1" as="geometry">
            <mxPoint x="-60" y="260" as="sourcePoint" />
            <mxPoint x="200" y="50" as="targetPoint" />
            <Array as="points">
              <mxPoint x="100" y="-165" />
              <mxPoint x="100" y="50" />
            </Array>
          </mxGeometry>
        </mxCell>
        <mxCell id="cQ8KKbzieFS9n6zauyxS-29" value="ALB" style="text;html=1;align=center;verticalAlign=middle;whiteSpace=wrap;rounded=0;movable=0;resizable=0;rotatable=0;deletable=0;editable=0;locked=1;connectable=0;" vertex="1" parent="1">
          <mxGeometry x="-30" y="-120" width="60" height="30" as="geometry" />
        </mxCell>
        <mxCell id="cQ8KKbzieFS9n6zauyxS-32" value="&lt;ul data-end=&quot;3049&quot; data-start=&quot;2920&quot;&gt;&lt;li class=&quot;&quot; data-end=&quot;3049&quot; data-start=&quot;3014&quot;&gt;&lt;p class=&quot;&quot; data-end=&quot;3049&quot; data-start=&quot;3016&quot;&gt;&lt;code data-end=&quot;3049&quot; data-start=&quot;3023&quot;&gt;IGW + Public Route Table&lt;/code&gt;&lt;/p&gt;&lt;br/&gt;&lt;/li&gt;&lt;br/&gt;&lt;/ul&gt;" style="text;html=1;align=center;verticalAlign=middle;whiteSpace=wrap;rounded=0;movable=0;resizable=0;rotatable=0;deletable=0;editable=0;locked=1;connectable=0;" vertex="1" parent="1">
          <mxGeometry x="-20" y="-320" width="190" height="20" as="geometry" />
        </mxCell>
        <mxCell id="cQ8KKbzieFS9n6zauyxS-36" value="" style="sketch=0;outlineConnect=0;fontColor=#232F3E;gradientColor=none;fillColor=#232F3D;strokeColor=none;dashed=0;verticalLabelPosition=bottom;verticalAlign=top;align=center;html=1;fontSize=12;fontStyle=0;aspect=fixed;pointerEvents=1;shape=mxgraph.aws4.user;movable=0;resizable=0;rotatable=0;deletable=0;editable=0;locked=1;connectable=0;" vertex="1" parent="1">
          <mxGeometry x="-29" y="-579" width="58" height="58" as="geometry" />
        </mxCell>
        <mxCell id="cQ8KKbzieFS9n6zauyxS-37" value="user" style="text;html=1;align=center;verticalAlign=middle;whiteSpace=wrap;rounded=0;movable=0;resizable=0;rotatable=0;deletable=0;editable=0;locked=1;connectable=0;" vertex="1" parent="1">
          <mxGeometry x="-29" y="-520" width="60" height="30" as="geometry" />
        </mxCell>
        <mxCell id="cQ8KKbzieFS9n6zauyxS-42" value="" style="html=1;endArrow=none;elbow=vertical;startArrow=block;startFill=1;strokeColor=#545B64;rounded=0;entryX=0.5;entryY=1;entryDx=0;entryDy=0;movable=0;resizable=0;rotatable=0;deletable=0;editable=0;locked=1;connectable=0;" edge="1" parent="1" source="cQ8KKbzieFS9n6zauyxS-11" target="cQ8KKbzieFS9n6zauyxS-37">
          <mxGeometry width="100" relative="1" as="geometry">
            <mxPoint x="-10" y="-450" as="sourcePoint" />
            <mxPoint x="90" y="-450" as="targetPoint" />
          </mxGeometry>
        </mxCell>
        <mxCell id="cQ8KKbzieFS9n6zauyxS-43" value="RDS (MySQL)" style="text;html=1;align=center;verticalAlign=middle;whiteSpace=wrap;rounded=0;movable=0;resizable=0;rotatable=0;deletable=0;editable=0;locked=1;connectable=0;" vertex="1" parent="1">
          <mxGeometry x="-400" y="728" width="100" height="30" as="geometry" />
        </mxCell>
        <mxCell id="cQ8KKbzieFS9n6zauyxS-57" value="" style="group;movable=0;resizable=0;rotatable=0;deletable=0;editable=0;locked=1;connectable=0;" connectable="0" vertex="1" parent="1">
          <mxGeometry x="-530" y="1040" width="960" height="160" as="geometry" />
        </mxCell>
        <mxCell id="cQ8KKbzieFS9n6zauyxS-49" value="" style="sketch=0;points=[[0,0,0],[0.25,0,0],[0.5,0,0],[0.75,0,0],[1,0,0],[0,1,0],[0.25,1,0],[0.5,1,0],[0.75,1,0],[1,1,0],[0,0.25,0],[0,0.5,0],[0,0.75,0],[1,0.25,0],[1,0.5,0],[1,0.75,0]];outlineConnect=0;fontColor=#232F3E;fillColor=#ED7100;strokeColor=#ffffff;dashed=0;verticalLabelPosition=bottom;verticalAlign=top;align=center;html=1;fontSize=12;fontStyle=0;aspect=fixed;shape=mxgraph.aws4.resourceIcon;resIcon=mxgraph.aws4.lambda;movable=0;resizable=0;rotatable=0;deletable=0;editable=0;locked=1;connectable=0;" vertex="1" parent="cQ8KKbzieFS9n6zauyxS-57">
          <mxGeometry x="480" width="78" height="78" as="geometry" />
        </mxCell>
        <mxCell id="cQ8KKbzieFS9n6zauyxS-50" value="Lambda: s3-upload-logger-dev" style="text;html=1;align=center;verticalAlign=middle;whiteSpace=wrap;rounded=0;movable=0;resizable=0;rotatable=0;deletable=0;editable=0;locked=1;connectable=0;" vertex="1" parent="cQ8KKbzieFS9n6zauyxS-57">
          <mxGeometry x="468.5" y="90" width="101" height="30" as="geometry" />
        </mxCell>
        <mxCell id="cQ8KKbzieFS9n6zauyxS-51" value="" style="html=1;endArrow=block;elbow=vertical;startArrow=none;endFill=1;strokeColor=#545B64;rounded=0;exitX=1;exitY=0.5;exitDx=0;exitDy=0;exitPerimeter=0;entryX=0;entryY=0.5;entryDx=0;entryDy=0;entryPerimeter=0;movable=0;resizable=0;rotatable=0;deletable=0;editable=0;locked=1;connectable=0;" edge="1" parent="cQ8KKbzieFS9n6zauyxS-57" source="cQ8KKbzieFS9n6zauyxS-44" target="cQ8KKbzieFS9n6zauyxS-49">
          <mxGeometry width="100" relative="1" as="geometry">
            <mxPoint x="240" y="40" as="sourcePoint" />
            <mxPoint x="340" y="40" as="targetPoint" />
          </mxGeometry>
        </mxCell>
        <mxCell id="cQ8KKbzieFS9n6zauyxS-52" value="Trigger: On file upload" style="text;html=1;align=center;verticalAlign=middle;whiteSpace=wrap;rounded=0;movable=0;resizable=0;rotatable=0;deletable=0;editable=0;locked=1;connectable=0;" vertex="1" parent="cQ8KKbzieFS9n6zauyxS-57">
          <mxGeometry x="240" y="48" width="130" height="30" as="geometry" />
        </mxCell>
        <mxCell id="cQ8KKbzieFS9n6zauyxS-53" value="" style="sketch=0;points=[[0,0,0],[0.25,0,0],[0.5,0,0],[0.75,0,0],[1,0,0],[0,1,0],[0.25,1,0],[0.5,1,0],[0.75,1,0],[1,1,0],[0,0.25,0],[0,0.5,0],[0,0.75,0],[1,0.25,0],[1,0.5,0],[1,0.75,0]];points=[[0,0,0],[0.25,0,0],[0.5,0,0],[0.75,0,0],[1,0,0],[0,1,0],[0.25,1,0],[0.5,1,0],[0.75,1,0],[1,1,0],[0,0.25,0],[0,0.5,0],[0,0.75,0],[1,0.25,0],[1,0.5,0],[1,0.75,0]];outlineConnect=0;fontColor=#232F3E;fillColor=#E7157B;strokeColor=#ffffff;dashed=0;verticalLabelPosition=bottom;verticalAlign=top;align=center;html=1;fontSize=12;fontStyle=0;aspect=fixed;shape=mxgraph.aws4.resourceIcon;resIcon=mxgraph.aws4.cloudwatch_2;movable=0;resizable=0;rotatable=0;deletable=0;editable=0;locked=1;connectable=0;" vertex="1" parent="cQ8KKbzieFS9n6zauyxS-57">
          <mxGeometry x="882" width="78" height="78" as="geometry" />
        </mxCell>
        <mxCell id="cQ8KKbzieFS9n6zauyxS-54" value="CloudWatch Logs" style="text;html=1;align=center;verticalAlign=middle;whiteSpace=wrap;rounded=0;movable=0;resizable=0;rotatable=0;deletable=0;editable=0;locked=1;connectable=0;" vertex="1" parent="cQ8KKbzieFS9n6zauyxS-57">
          <mxGeometry x="891" y="90" width="60" height="30" as="geometry" />
        </mxCell>
        <mxCell id="cQ8KKbzieFS9n6zauyxS-55" value="" style="html=1;endArrow=block;elbow=vertical;startArrow=none;endFill=1;strokeColor=#545B64;rounded=0;entryX=0;entryY=0.5;entryDx=0;entryDy=0;entryPerimeter=0;movable=0;resizable=0;rotatable=0;deletable=0;editable=0;locked=1;connectable=0;" edge="1" parent="cQ8KKbzieFS9n6zauyxS-57" target="cQ8KKbzieFS9n6zauyxS-53">
          <mxGeometry width="100" relative="1" as="geometry">
            <mxPoint x="560" y="40" as="sourcePoint" />
            <mxPoint x="740" y="40" as="targetPoint" />
          </mxGeometry>
        </mxCell>
        <mxCell id="cQ8KKbzieFS9n6zauyxS-56" value="Logs upload event details" style="text;html=1;align=center;verticalAlign=middle;whiteSpace=wrap;rounded=0;movable=0;resizable=0;rotatable=0;deletable=0;editable=0;locked=1;connectable=0;" vertex="1" parent="cQ8KKbzieFS9n6zauyxS-57">
          <mxGeometry x="650" y="48" width="150" height="30" as="geometry" />
        </mxCell>
        <mxCell id="cQ8KKbzieFS9n6zauyxS-44" value="" style="sketch=0;points=[[0,0,0],[0.25,0,0],[0.5,0,0],[0.75,0,0],[1,0,0],[0,1,0],[0.25,1,0],[0.5,1,0],[0.75,1,0],[1,1,0],[0,0.25,0],[0,0.5,0],[0,0.75,0],[1,0.25,0],[1,0.5,0],[1,0.75,0]];outlineConnect=0;fontColor=#232F3E;fillColor=#7AA116;strokeColor=#ffffff;dashed=0;verticalLabelPosition=bottom;verticalAlign=top;align=center;html=1;fontSize=12;fontStyle=0;aspect=fixed;shape=mxgraph.aws4.resourceIcon;resIcon=mxgraph.aws4.s3;movable=0;resizable=0;rotatable=0;deletable=0;editable=0;locked=1;connectable=0;" vertex="1" parent="cQ8KKbzieFS9n6zauyxS-57">
          <mxGeometry x="51" width="78" height="78" as="geometry" />
        </mxCell>
        <mxCell id="cQ8KKbzieFS9n6zauyxS-45" value="&lt;span id=&quot;docs-internal-guid-38c86a14-7fff-a16a-b982-862efc6c633b&quot;&gt;&lt;span style=&quot;font-size: 11pt; font-family: Arial, sans-serif; background-color: transparent; font-variant-numeric: normal; font-variant-east-asian: normal; font-variant-alternates: normal; font-variant-position: normal; font-variant-emoji: normal; vertical-align: baseline; white-space-collapse: preserve;&quot;&gt;logs, backups, static content&lt;/span&gt;&lt;/span&gt;" style="text;html=1;align=center;verticalAlign=middle;whiteSpace=wrap;rounded=0;movable=0;resizable=0;rotatable=0;deletable=0;editable=0;locked=1;connectable=0;" vertex="1" parent="cQ8KKbzieFS9n6zauyxS-57">
          <mxGeometry x="30" y="130" width="120" height="30" as="geometry" />
        </mxCell>
        <mxCell id="cQ8KKbzieFS9n6zauyxS-46" value="S3 Bucket (scalable-logs-bucket-dev)" style="text;html=1;align=center;verticalAlign=middle;whiteSpace=wrap;rounded=0;movable=0;resizable=0;rotatable=0;deletable=0;editable=0;locked=1;connectable=0;" vertex="1" parent="cQ8KKbzieFS9n6zauyxS-57">
          <mxGeometry y="90" width="170" height="30" as="geometry" />
        </mxCell>
        <mxCell id="cQ8KKbzieFS9n6zauyxS-47" style="edgeStyle=orthogonalEdgeStyle;rounded=0;orthogonalLoop=1;jettySize=auto;html=1;exitX=0.5;exitY=1;exitDx=0;exitDy=0;movable=0;resizable=0;rotatable=0;deletable=0;editable=0;locked=1;connectable=0;" edge="1" parent="cQ8KKbzieFS9n6zauyxS-57" source="cQ8KKbzieFS9n6zauyxS-46" target="cQ8KKbzieFS9n6zauyxS-46">
          <mxGeometry relative="1" as="geometry" />
        </mxCell>
        <mxCell id="cQ8KKbzieFS9n6zauyxS-59" value="" style="shape=image;verticalLabelPosition=bottom;labelBackgroundColor=default;verticalAlign=top;aspect=fixed;imageAspect=0;image=data:image/png,iVBORw0KGgoAAAANSUhEUgAAAgAAAAIACAYAAAD0eNT6AAAAAXNSR0IArs4c6QAAIABJREFUeAHt3U+IHFee4HEhRGOEmYNpTB/M0JjGh2EQSxs82FiZYRls3BUZai2rxZUVaYrexSxiGZrBNMNgllqGwTTD0Jg9LKYZhsYMA27apirddu+haUyffOiDDoMPxvRB+VIqLaIRxhgjTO1mqVIqp+pPRlZmZES8jy5ZkRkZ8d73/d77fRWZv4xTp/xDAAEEEEAAAQQQQAABBBBAAAEEEEAAAQQQQAABBBBAAAEEEEAAAQQQQAABBBBAAAEEEEAAAQQQQAABBBBAAAEEEEAAAQQQQAABBBBAAAEEEEAAAQQQQAABBBBAAAEEEEAAAQQQQAABBBBAAAEEEEAAAQQQQAABBBBAAAEEEEAAAQQQQAABBBBAAAEEEEAAAQQQQAABBBBAAAEEEEAAAQQQQAABBBBAAAEEEEAAAQQQQAABBBBAAAEEEEAAAQQQQAABBBBAAAEEEEAAAQQQQAABBBBAAAEEEEAAgZIIrK//8aE8De/10uGfl3RKp0EAAQQQQACBZRPYFYAs7ORp+DLvDP6h0xmeXXabnB8BBBBAAAEEFkzgngCMJOCuCIS1zo3ugk/r8AgggAACCCCwTAIPCMCeCPQ6w49Xs+1zy2ybcyOAAAIIIIDAgggcJgC7VwOy8HWehp+vdobfXtDpHRYBBBBAAAEElkHgGAG4+7FAFv60tjL8cZLsnFlGG50TAQQQQAABBOZMYEoBGIvAp91s2JpzExwOAQQQQAABBMomUFAAxl8UVDZY9kA5HwIIIIAAAvMkMJMA7JUNdpUNznMoHAsBBBBAAIHyCMwsAPvLBi8qGyxvxJwJAQQQQACBORA4sQAoG5zDKDgEAggggAACJROYlwAoGyx54JwOAQQQQACBkxCYswCMqwWUDZ5kULwXAQQQQACBRRNYkACMReDTXmdwYdF9cHwEEEAAAQQQKEhgwQKwKwKrWdh0t8GCA2N3BBBAAAEEFkmgDAHYu8nQl8oGFzmSjo0AAggggEABAqUJwF61QDcLYTUb5gWaaFcEEEAAAQQQmDeBsgVgr1pgx90G5z2SjocAAggggEABAssSAGWDBQbJrggggAACCMybwJIFYFwtoGxw3gPreAgggAACCBxFoCICMBYBZYNHDZbXEEAAAQQQmBeBignAvbLB7sr24/Pqo+MggAACCCCAwASBKgrAuGxwLQ1vdDrDsxNNtokAAggggAACJyVQWQFQNnjSofV+BBBAAAEEDidQdQFQNnj42HkFAQQQQACBmQnURQCUDc48xN6IAAIIIIDAgwRqJgDjaoE/5dngb5Jk58yDPfIMAggggAACCBxLoKYCMBYBZYPHjrAdEEAAAQQQOIBAzQVgVwR6aegrGzxgcD2FAAIIIIDAYQSaIACj7wd0s/DVqGzwVWWDhw215xFAAAEEELhPoCkCMK4W2L3b4Iq7Dd4fYX8hgAACCCBwAIGmCcBYBNxt8IDB9hQCCCCAAAJjAk0VgLEIrGbhn1c7w2+P++sRAQQQQAABBE6dOtV0Adj9fkAabisbFO4IIIAAAgjsIxCDAIyvBuRZUDa4b+z9iQACCCAQMYHIBEDZYMSxrusIIIAAAvsIxCgAux8L3C0b/KmywX3B4E8EEEAAgXgIxCoA+z4WuL76/8sGNzZ2Tscz6nqKAAIIIBA9AQIQdj8W6KbhD6vZ9rnoAwIABBBAAIE4CBCAuwIwviKgbDCOuNdLBBBAIHoCBOCbArD7/YA03F51t8Ho5wYACCCAQKMJEIAHBWB8NUDZYKNDX+cQQACBuAkQgCMFYPz9AHcbjHua6D0CCCDQPAIE4HgB2P1YQNlg84JfjxBAAIGYCRCA6QRg38cC1/N08IqywZhnjb4jgAACDSBAAAoLwPhjgT/kafh+A0JAFxBAAAEEYiRAAGYTgPEVgV7qboMxzht9RgABBGpPgACcTAB2vx+gbLD280AHEEAAgegIEICTC8D4aoCyweimjw4jgAAC9SVAAOYqAO42WN+poOUIIIBAXAQIwPwFYPdjgSx8tZoFdxuMazrpLQIIIFAfAgRgMQKw72MBZYP1mQ5aigACCMRDgAAsXACUDcYznfQUAQQQqA8BAlCOAIyvCHRXwr/0Lt14tD4RoqUIIIAAAo0kQADKFYDd7wek4XbeCa8lyc6ZRgaVTiGAAAIIVJ8AAShfAMZXA5QNVn9+aCECCCDQWAIEYKkCoGywsTNLxxBAAIGKEyAAyxeA3Y8FlA1WfKZoHgIIINAwAgSgGgJw72OBNFzvXnS3wYZNM91BAAEEqkeAAFRMALK77emmwd0GqzddtAgBBBBoDgECUE0BGF8RUDbYnLmmJwgggEClCBCAagvAngh83kvDTzaUDVZq7mgMAgggUGsCBKAWArD3a4KDz3qdwYVaB5zGI4AAAghUgwABqI8AjD8WyNPhr7sr249XI4K0AgEEEECglgQIQA0FIAs7XWWDtZxvGo0AAghUhgABqKcA3L8aEK53O4P1jY2d05UJKg1BAAEEEKg+AQJQcwFQNlj9SaaFCCCAQBUJEIBmCMC9KwLZ8BfuNljFmaZNCCCAQMUIEICmCcBuf5QNVmyeaQ4CCCBQOQIEoJECsFs2uHu3wYvXflC5oNMgBBBAAIHlEyAAjRaAvd8PCL9d/+H17y4/2rQAAQQQQKAyBAhA8wVg7/sBd/KV8I+vdoZnKxN8GoIAAgggsDwCBCAaAbj7scDoboPKBpc34ZwZAQQQqAqB9WTnofvfII8sGe6V0MXY/9HdBl+5NHiiKnGoHQgggAACJRNwBSBe6VlbGf645HBzOgQQQACBqhAgAASgKrGoHQgggAACJRIgAASgxHBzKgQQQACBqhAgAASgKrGoHQgggAACJRIgAASgxHBzKgQQQACBqhAgAASgKrGoHQgggAACJRIgAASgxHBzKgQQQACBqhAgAASgKrGoHQgggAACJRIgAASgaLitZeFHbjlclJr9EYiLwPnz77/87LPvPx5Xr2vWWwJAAIqGbJ6G97ppuJ13wmuj+Cn6fvsjgEBzCZw/v3mu3d76OEn6O0ny6//Q3J42oGcEgAAUDeORAIx/PrmbDj5be2n4QtFj2B8BBJpF4Jln3n201dp6q9Xa/Ppu8icAlR9hAkAAigbpfgEYi0CehQ/dW6AoSfsjUH8CSfK7M0my9Vqr1b99P/GPkj8BqPzoEgACUDRIDxGAnW4a7vQ6g59duXzz4aLHtD8CCNSPwIULH7yQJP1PHkz8BKAWo0kACEDRQD1MAPZdDdjuueVwUaz2R6A2BJLkve8myeaHhyd+AlCLwSQABKBooE4hADsjGeh1hh930+tPFT2+/RFAoJoEkuSdh1utrTfa7f5Xxyd/HwFUcxT3tYoAEIB94TDVn9MKwP0rAsNfKBucCq2dEKgkgY2NndPnz2+tt9v97ekSvysAlRzIyUYRAAIwGRPHbRcXgDD6foCywePAeh2BChL4ZlnfOLFP+6gMsIJDer9JBIAA3I+G6f6aRQDGVwOUDU7H2F4ILJvAwWV90yb+8X4EYNnjeOT5CQABODJADnjxJAIwFgFlgweA9RQCFSBwdFnfOLFP+0gAKjCkhzeBABCAw6Pj4FfmJADKBg/G61kElkbg+LK+aRP/eD8CsLTBnObEBIAATBMn+/eZlwDsuxpwt2zw1M7p/efxNwIIlENg+rK+cWKf9pEAlDOCM56FABCAoqGzAAHYLRvM03BV2WDR0bA/ArMTKF7WN23iH+9HAGYfnRLeSQAIQNEwW5gAZOOxUDZYdEzsj0ARArOX9Y0T+7SPBKDIuJS+LwEYJ534HtdWhj+eJeAWLwDKBmcZF+9BYBoC58/3n7p/t75pE/ms+xGAacZkafsQgPgS//iz9yoLwLiNygaXtjQ4ccMIjMr6kmTr7W/erW/WxD7t+whApcOIABCAogFaxhWAsQDse3S3waIDZX8ETp06dfnyO986/G590ybyWfcjAJUOQgJAAIoG6JIEQNlg0YGyf/QERmV9rVb/s2I/3ztrsj/ofQSg0kFIAAhA0QBdlgDsuxqgbLDooNk/KgKLK+s7KMkf9RwBqHTgEQACUDRAKyAAygaLDpr9oyCw+LK+o5L9Qa8RgEoHHgEgAEUDtDICoGyw6NDZv6EEyivrOyjJH/UcAah0yBEAAlA0QKsnAMoGi46h/ZtDoNyyvqOS/UGvEYBKRxoBIABFA7SKAjD+foCywaKjaf+6ElhOWd9BSf6o5whApeOLABCAogFaZQEYi4C7DRYdVfvXhcByy/qOSvYHvUYAKh1XBIAAFA3QmgiAssGiA2v/yhNYflnfQUn+qOcIQKWDigAQgKIBWhcB2Hc1QNlg0UG2f6UIPP/8u08kyeaHy6vnPyrJH/UaAahUIE02hgAQgMmYOG67hgKgbPC4QfV6JQmMyvra7a03k6R/p37JfyQGBKCSgTVuFAEgAONYmPaxtgKwr2xw7aXBY9P2134IlE9g5/T581vr7XZ/u56Jf3xVgACUHzsFzkgACECBcNndtf4CEHbyNHzRywavj+K/aP/tj8AiCdwt6+tfrXfiJwCLjJG5HZsAEICiwdQIAdi7GqBssOjo239RBOpR1jdO7NM+ugKwqHiZy3EJAAEoGkhNEoB9XxR0t8GigWD/uRCoV1nftIl/vB8BmEuQLOogBIAAFI2thgqAssGigWD/ExOoX1nfOLFP+0gAThwkizwAASAAReOrqQKw72qAssGiQWH/QgTqW9Y3beIf70cACgVG2TsTAAJQNOYiEABlg0WDwv5TEah/Wd84sU/7SACmCoxl7UQACEDR2ItGAJQNFg0N+x9KoCllfdMm/vF+BODQkKjCCwSAABSNw/gEQNlg0Rix/30CzSrrGyf2aR8JwP1IqOBfBIAAFA3LKAVA2WDRMIl+/yT54LEk2Xq71dr8uhk1/dMm/f37EYBKTwQCQACKBmjMArDvi4LKBosGTiT7j8r6Wq3N11ut/hfxJv6xBBCASoc9ASAARQOUANyNmW4a7vQ6g59duXzz4aIM7d9MAq3WZtZub34m8ROAWkQ4ASAARQOVADwQM8oGiwZRw/YflfW121sfSfzjxD9+dAWg0qFOAB5YzO+WgN37BnhzX19bGf54luAkAIfERBqudtPrT83C1HvqSSC+sr5xYp/2kQBUOrIJwCGLOQE4NG4JwHExM/yFuw0eGj4NeSHWsr5pE/94PwJQ6YAnAMct5s193RWABY6tuw1Wet07SePiLusbJ/ZpHwnASWJt4e8lAAtMAhW/ikAAShn7T/MsZAufyE6wcALK+qZN+vv3IwALD8yTnIAAlJIEKvm9AgJQ4th3wkevXBo8cZK56r3LIaCsb39CL/o3AVhO1E55VgJQYhKo2BUBAlDu2CsbnHJRqtBuyvqKJvzJ/QlAhcL5waYQgHKTwL4fkln6VQECsLSxVzb44FJUqWeU9U0m8lm3CUClAnuyMQRgaUmAAFTsikjpcqZscHI5Wvr200//5pF2e+vNJOnfUdM/a9Lf/z4CsPSgPqoBBIAAHBUfB72mDHDeMaNs8KA4K/e5ndPt9taVVqt/S+Lfn8BP+jcBKDeOC56NAMx7Ma/P8XwEUKGxUjZYcOWa3+6t1mar3e5flfhPmuwPej8BmF+kLuBIBKBCSaDkS+IEoJJjr2xwAevcQYcclfW121u/kvgPStzzeo4AHBR7lXmOAFQyCZTy/QACUOGxVza4sDVSWd+8kvs0xyEACwvkeRyYAFQ4CSz4igABqPbYKxucxwr3zWMo65smac9zHwLwzQis2BYBqHYSWOQ30wlAbcZe2eAJ101lffNM6kWORQBOGLqLfTsBqE0SmPvHAgSgZmOvbLDwYqisr0iyXsS+BKBw0Jb5BgJQsyQwx48FCEBdx17Z4PFrpLK+any5kQAcH6tL3IMA1DUJnLzdBODkDBf5Ec2Rx1Y2eOiqqaxvEf+Tn/WYBODQQK3CCwSgxknghFcDCEAjxl7Z4N5Cqqxv1iS9yPcRgCrk+UPbQAAakQRm+n4AAWjQ2EdcNvjkk/2zrdbm661W/4tqXPZeZEKt27EJwKHJtwovEIAGJYGCVwQIQLPGflw2ePnFa49UYW0pow1Jsvlyq7V5TeKvqhgQgDLmwcznIADNSgJHfm48IQgEoJlj303DrdVOuLJxauf0zAtDxd94/vzmuXZ76yOJv6qJf9wuAlDpqUQAmpkEphEBAtDwsW9g2eCorK/V2nqr1dr8WvIfJ9kqPxIAAjDxP89pkpN9Fp+cCMDiGVcjjptQNqisr57CQwAIAAGY6Ut6i04eBCAWAQg7eY3LBpX1Vfl/+Me1jQBUWgBGjcvTcHXRycbxq5dsCED1xqSEeVKbskFlfccl1zq8TgAqLwAbGzun8zT81zwL2yUsQJX833CM/SYAUQrA3flX4bJBZX11SOzTtpEAVF4Axg28cvnmw3l2/Z/yLNyJMSHG1mcCELEAZGGnimWDyvqmTax12Y8AjPNrbR7z7Ob3umn4bWwJMbb+EoC4BWAc71UoG1TWV5eEXrSdBKA2iX+yoWudQZpnYfSZocv2DWRAAMT1N+b2EsoGlfUVTah1258ATObVWm1vJDtnemn4SZ6Fz7+xWDQwIcbWPwJAAA6O+cWXDSbJ786021tXWq3+rXqWt9UtES+rvQSgVgn/sMb2Lt14tLsS/uXgBcNCWkcuBEDcHhq3CywbHJX1JUn/E4l/WUm5zPMSgMNyai2fz9Pw/W4a/nDowuHKQG0+LiEABGCKeTy3ssFnn33/8XZ761cSf5kJeNnnIgC1TPRHNXpUNri6MszzLFyfYgGpTUKMrS8EgABMHfMnKBu8W9a39Ua73f9K8l92Qi77/ATgqFxa69de7QzPrqXhjTwNX069kLhCUBkhmlUAemnoG+8o5eH3syxY58+/n0v8ZSfeqpzv/b+cJWa8p0YEuivbj+dpeE9SqFdSIAD1Gq8KzC8CkFQlsdalHQSgRqn8ZE3tZsNWNw2fVGChqsz/sqvMggAQgILxSQAIwE6xqzkE4GRZtWbvHn0/oHfxxl/nWfhTwcVF0i754xECQAAKzlECQAAIQM1y8lKae/nFa4/kncFbeRa+LrjIEIGSRIAAEICCc5MAEAACsJSMWtOTrl28/hd5Fn5fcKEhASVIAAEgAAXnJQEgAASgprl4qc1e7Qz+czcL1wouOERggSJAAAhAwflIAAgAAVhqJq3xydeTnYd6nfA/u5mywYIL70JEiAAQgIJxSAAIAAGocQ6uRNPXXho8lmfDXxZcfBaSBGNuAwEgAAXjnwAQAAJQiSzagEbkK+GZ7kr494KLEBGY08cCBIAAFJx7BIAAEIAG5N7KdGHj1M7ptXTw33qdcKvgYkQETigCBIAAFJxzBIAAEIDKZM8GNWTtpVt/1k3Dm9003Cm4KBGBGUWAABCAgnONABAAAtCgvFu5rrxyafBE3gkfFVyYSMAMEkAACEDBeUYACAABqFzWbGCD8s7wh9108FnBBYoIFBABAkAACs4vAkAACEAD820lu7S+/seH8pUbf5dn4fOCCxURmEIECAABKDivCAABIACVzJYNbtT6D25+Z60zeLvgYkUCjpEAAkAACs4pAkAACECDc22lu9ZNrz+Vp+FqwUWLCBwiAgSAABScSwSAABCASmfJhjdu926DncF6noXtgosXEZgQAQJAAArOIQJAAAhAw3NsLbp35fLNh/OV8I95pmyw4CJ+T4QIAAEoGDsEgAAQgFpkyEga2V3ZfjxPh78uuJDdS4Ixv48AEICC8U8ACAABiCS31qqbvc7gQp6FTwsuaFGLAAEgAAXnCwEgAASgVpkxosYmyc6Z1WzwN9003C64sEUpAgSAABScJwSAABCAiHJqLbu62hl+O0/Dz/MsfF1wgYtKBAgAASg4PwgAASAAtcyKETZ6Nds+1+sMPy64yEUjAQSAABScGwSAABCACHNprbu8dvFGN09DKLjYNV4ECAABKDgnCAABIAC1zoaRNr7TGZ7NO4N/yNPwZcFFr7EiQAAIQMG5QAAIAAGINIc2otu9dPjn3YvhvYILXyMlgAAQgILzgAAQAALQiEwYeSe62bDVTcMnBRfARokAASAABeOfABAAAhB57mxM90c/K5xn4b9303Cr4ELYCBEgAASgYNwTAAJAABqTAXVkl8DlF689spZd/9+xlQ0SAAJAAPoFE5r9k0IS9P5fSjMI1ILA2sXrf5Fn4fcFF8XaXg0gAASgYKy7AlAo+ZGFJCEAtUh+GnmfwFp6/T+trYQ/FlwcaycCBIAAFIxxAkAACl4xIQD3M4u/akNgPdl5aLUT/keehi8KLpK1EQECQAAKxjYBIAAEoDZZTENPTGDtpcFjeRb+reBCWQsJIAAEoGBcEwACQABOnFUcoHYE8pXwTJ6GqwUXzEqLAAEgAAXjmQAQAAJQu+ylwXMhsFs2uDJ8Nc/CdsGFs5IiQAAIQME4JgAEgADMJZs4SG0JXLl88+HVzuBn3TTcKbiAVkoECAABKBi/BIAAEIDaZi4NnyuBPLv5vW4afltwEa2MBBAAAlAwdgkAASAAc80iDlZ7AnkWsjwLnxZcTJcuAgSAABSMWQJAAAhA7TOWDsydwEayc6aXhp90s/B5wUV1aSJAAAhAwVglAASAAMw9ezhgYwj0Lt14NM+Gvyi4sC5FAggAASgYpwSAABCAxmQrHVkYgTwN3++m4Q8FF9hSRYAAEICC8UkACAABWFjWcOBGERiVDXYvDl7J03C94EJbiggQAAJQMC4JAAEgAI3KUjqzcAKvdoZnV7Pw024Wviq44C5UBAgAASgYjwSAABCAhWcMJ2gkge7K9uO9NPQLLroLkwACQAAKxiIBIAAEoJHZSadKI9DrDC5UoWyQABAAAuCWvclCpcbdAEtLLE5UHwJJsnNmlIDzLPyp4CI8tysCBIAAFIw9VwAWmiybKCMEoD5ZSUtLJ7DaGX672wk/z7PwdcHF+MQiQAAIQMGYIwAEwEcApWcJJ2w8gdVs+1yvM/y44IJ8IgkgAASgYLwRAAJAABqfjXRwaQS6WXi5m4VrBRfmmUSAABCAgnFGAAgAAVhadnDiKAh0OsOza+mNv8/T8GXBBbqQCBAAAlAwvggAASAAUWQhnVw6gbWXBo/l2fCXBRfpqSWAABCAgrFFAAgAAVh6ZtCAqAjkK+GZ7kr494KL9bEiQAAIQMGYIgAEgABElX10thIENk7tnF7thCu9TrhVcNE+VAQIAAEoGEsEgAAQgEpkBI2IksDaS7f+LM/C/5pH2SABIAAEoIm191Xqk98BiDJR6fRiCbxyafBE3gkfFVzAv3E1gAAQgILx4wqAKwCuACx2aXd0BKYn0M2G/zHPBp8VXMh3RYAAEICCcUMACAABmH55ticCiyewvv7Hh7orw7/Ls/B5kQWdABCAIvGSZ4EAEAACsPgl3RkQKE5g/Qc3v9NNw79Ou6gTAAIwbazs7UcACAABKL40ewcC5RHoptefytNw9bjFnQAQgONiZOJ1AkAACEB5S7kzITAbgY2NndNrK+FHeRa2Jxbxe18EJAAE4LDYOOR5AkAACMBsS7J3IVA+gSuXbz6cZ9f/Kc/CnclFnQAQgMmYOGabABAAAlD+Mu6MCJyMQJ7d/F43Db/dv8ATAAKwPx6m+JsAEAACcLKl2LsRWB6B3sVrP8iz8OlosScABGCKpH/vIyNVAFX6gZ26tMUPAS1vtXdmBA4gsJHsnOml4Sej7wgc8PKxT/XS0C+YOPYnEX9ntRUPVwBcAXAF4NgV0g4INJgAAahtAj+pfBEAAkAAGry26xoCxxIgAATg2CDZt8P58+/nicRZMHHW5RL/ce30EcC+qeBPBOpPgAAQgCJRTACOS5JNfp0AFJkr9kWg8gQIAAEoEqQEoMkJ/ri+EYAic8W+CFSeAAEgAEWClAAclySb/DoBKDJX7ItA5QkQAAJQJEgJQJMT/HF9IwBF5op9Eag8AQJAAIoEKQE4Lkk2+XUCUGSu2BeByhMgAASgSJASgCYn+OP6RgCKzBX7IlB5AkVuOewHgxolC34HQDljoXLG559///HKL2gaiAAC0xNIkp0zeSe81k3DbQm+UQn+6B8K6oSPpo+S+3smyda63wE47n/KTXt988Pnn3/3iftR4C8EEGgUgd6lG4/mncFbeRa+JgIRiAABKPS/3xilp9Xqf3bhwgcvNGqh0xkEEDicwGq2fa7XGX5MAhouAQSAABzyEUir1b+dJFuvXb78zrcOXym8ggACjSSwsbFzupuFl7tZuEYEGioCBIAATAhAq7X5dZJsvf3MM+8+2siFTacQQGB6Ap3O8OxaGt7I0/AlEWiYCBAAArBPANrtrY/Pn+8/Nf3qYE8EEIiCQHdl+/E8G/6SBDRIAggAAUj6O+12f7vV2vzR6KpfFIuZTiKAwGwEutmw1U3DJ0SgASJAAKIWgHa7/1WS9N9Ikncenm018C4EEIiOwKhscLUTrnTTcIsI1FgECEC0AtBub/3q2WfV9Ee3eOswAvMicPnFa48oGyQAMZbH1bjPn7Ram615rQGOgwACkRMYlQ3mnfCRqwE1kwFXAKK5AtBq9W8999zWlST53ZnIlyvdRwCBRRBQNkgAavw/40bKwKisr9Xaeuvpp3/zyCLmvGMigAAC9wiMygZ72eD1PA1fuCJQcSFwBaCRSX8sYe321kfnz2+euzc5/YEAAgiUQWDtpcFjygYJwDgZeSzv3gCt1ua1JNl8uYx57hwIIIDAoQRGZYN5Gq66GlBBGXAFoFFXAFqt/het1ubrTz7ZP3vohPQCAgggUCaBjVM7p3udwXqehW0iUCERIACNEYBRWV+SfPBYmfPauRBAoAEErly+WcoPgYzO0+sMftZNwx0iUAERIAC1F4B2u39VWV8DFmFdQGBZBPI0vJevhH98tTMs5dLhK5cGT+SI9FVTAAAXM0lEQVRZ+JAELFkCCEBtBWBc1nfqlJ/vXda66bwINIJAng5/vZeMt0eX6sv6TfC1l4YvdNPBZ0RgSSJAAOooAHfa7a03lfU1YunVCQSWT2CfAOyMknE3DX/I0/D9Mlq2vv7Hh/JOeK2bhttEoGQRIAA1E4DND59//t0nypiXzoEAApEQmBSA+4l4+IvepRul3Bd8dJ61zuDt++cuORlmEZ6PANRCAFqt/mcXLnzwQiTLkW4igECZBA4XgN2k+PlaFn6ykeyU8hOi3fT6U73O8GMiUIKQEIBKC0Cr1b+dJFuvXb78zrfKXA+cCwEEIiJwjADsfiyQZ+HTtc4gLQPL6DsIygYJQKw/HjT6+d4k2Xr7mWfeLeXqWxlz2jkQQKCiBKYUgPH3A36bZze/V0ZXRmWDa2l4I0/Dl64ILEAIXAGo3BWAdnvr4/Pn+0+VMb+cAwEEEDhVRAD2EvGdPLv+T2X9fsD6D69/V9kgAWjyFYF2u7/dam3+qKwKHMseAgggsEtgBgEYfyywhLLB8ImrAXOSAVcAln4FoN3uf5Uk/TeS5J1SfozLkocAAgh8g8AJBGD8sUBpZYNJsnNG2SABaMbVgM0Pk+S9735jMtpAAAEEyiRwUgG4/z/ycssG887grTwLX98//5wSYywlga4ALOsKwCfK+spc4ZwLAQQOJTA/AQg73Sx83kvLKxtczbbPKRucUXwIQKkCMC7rS5LflVJSe+iE9wICCCAwJjBPAdj3v/FSywa7WXi5m4Vr+84//p6Cx8OuaBCAUgRgVNbXam29paxvvOJ4RACByhBYkACMvx9QWtlgpzM8q2ywwNUAArBwAWi3tz46f37zXGUmu4YggAAC+wksUgD2/kdeatlgd2X78Twb/tLVgGNkgAAsTABarc1rSbL58v555m8EEECgcgRKEIDxZfjttSyUVuvczYatPA1XicAhIkAA5i4ArVb/i1Zr8/Unn+yXcmvtyi0mGoQAAvUiUKIA3BWBUVIu6W6DG6d2Tq92wpVuGm4RgQkRIABzFYB2e+tXSfLBY/Wa/VqLAAJREyhdAO59Ka28ssHLL157pNcZ/KybhjtEYE8ECMBcBKDd7l9ttTZbUS8iOo8AAvUksDwBKL9s8JVLgyfyTviIBISdEYdZIjZJttab8UM8/RMJQKvVv/Xcc1tXTp3aOT0LR+9BAAEElk5gmQKwLxGXVjY4Ap6vhGx0h8N95x9/TyGeRwIwqwDcabe33nz66d88svTJqwEIIIDASQhURAB2E283DaWVDa6v//GhXjZ4PU/DF1GKAAEoLACjsr7nn3/3iZPMN+9FAAEEKkOgSgKwl4hLLRtce2nw2Fpn8HZ0EkAAphaAdnvzs+eeez+rzKTVEAQQQGAeBCooAOPL8OWWDabXn4qqbJAAHCsA47K+y5ff+dY85ppjIIAAApUiUGEBuCsCabjaTa8/VQa0UdlgrzNYz7Ow3fgrAgTgUAEY/Xxvkmy9rayvjFnnHAggsDQClReAvbLB0WX63qUbj5YB6srlmw83vmyQABwoAO321sfnz/dLEc4yYtk5EEAAgUMJ1EUARv8jH91tcDW98bcbyU4pd1TbLRvMwoeNvBpAAL4hAO12f7vV2iztlyoPnZBeQAABBMoiUCcB2JeISy0bXHtp+EI3HXy27/zj7ynU95EA7ApAu93/Kkn6byTJOw+XNeecBwEEEKgEgZoKwG7iLbtsMO+E17ppuN0IESAAO0my+WGSvPfdSkxEjUAAAQTKJlBnAdhLxHdGn9ePPrcvg93oewiNKBuMWwA+uXDhgxfKiBfnQAABBCpLoAECML4Mv722UuLdBtPrT/U6w49rezUgQgFotfq3k2TrtST5XSnfIanspNcwBBBAYESgQQJwVwTKLBvc2DndzcLL3Sxcq50IRCQAo7K+VmvrrWeeebeUKhIrCwIIIFALAo0TgH1lg+s/uPmdMgah0xmeXUvDG3kavqyNCEQiAHfL+jbPlREHzoEAAgjUikBTBWCUiHfLBi+WVzbYXdl+PM+Gv6yFBDRcAFqtzWtJsvnyxoa79dVqQdJYBBAoj0CTBWBfIh7d+a+033LvZsNWNw2f7Dv/+HsK1XlsqACMf773ySf7Z8ubRc6EAAII1JBAJAKwm3jLLBtMkp0zq51wpZuGW5UUgQYKQLu99Ss/31vDRUiTEUBgOQRiEoC9RFxq2eDlF689kncGb+VZ+LpSItAgAWi3+1dbrc3WcmaQsyKAAAI1JRChAIwvw2/nafivZX1GvJptn8s74aPKSEADBKDV6t967rmtK6dO+Zy/psuPZiOAwDIJRCwAd0WgxLLB0ThXpmyw3gJwp93eevPpp3/zyDLnjnMjgAACtSYQvQDslQ32OuFfyywb7GWD1/M0fLG0KwI1FYB2e+uj559/94laTzqNRwABBKpAgACE8UcCo8fPVy/e+Nv19T8+VMbYrL00eGxpZYM1E4B2e/Oz5557v7RKjjLG3zkQQACBpRIgAN8QgLEMfJqvlFs2mKfhaqlXA2oiAOOyvsuX3/nWUieKkyOAAAJNI0AADhSAXREos2xw49TO6VLLBisuAKOf702SrbeV9TVtxdEfBBCoDAECcLgAjP5H3k3DndUS7zY4Khsc3d1wdN6FXhGosACMyvrOn+8/VZlJoiEIIIBAEwkQgKMFYF8SLrVs8JVLgycWWjZYQQFot/vbrdbmj5T1NXGl0ScEEKgcAQIwtQDc/X5AyWWDo+8i5FkY/ZTx+PsJ83mskAC02/2vkqT/RpK883DlJogGIYAAAk0lQABmS6xllg2OqhLmXjZYGQHY/DBJ3vtuU+eXfiGAAAKVJUAAZhOAvf+Rf56v3Pi7MssG1zqDt+dyNWD5AvDJhQsfvFDZiaFhCCCAQNMJEIATCcBetcDgs1LLBtPrT/U6w49PJAJLEoBWq387SbZeS5LfnWn63NI/BBBAoNIECMDJBeBeIt79rf+b3ytjwEf3MOh1But5Frbvnb/I9wRKFoBRWV+rtfXWM8+8+2gZfJwDAQQQQOAYAgRgjgKwhLLBK5dvPryWhjfyNHxZSARKFIB2e+vj8+c3zx0Til5GAAEEECiTAAGYrwDsS8LbqxdvlHa3wfUfXv9unoUP953/6GqBEgSg1dq8liSbL5d1x8Uy541zIYAAArUnQAAWJgB3E3DJZYNrLw1f6Kbhk2NFYIECMC7re/LJ/tnaTxAdQAABBJpKgAAsWAD2PpfvpuXdbTBJds7knfBaNw23DxWBBQlAu731q2efff/xps4X/UIAAQQaQ4AAlCMAe4m41LLB3qUbj+adwVt5Fr5+QATmLwCftFqbrcZMDB1BAAEEmk6AAJQqAPfLBjvDH5YVW6vZ9rkHygbnJACtVv/Wc89tXVHWV9ZoOg8CCCAwJwIEoHwBuPe/8U74aPSb/3MayiMPM/oiXjcLL3ezcG33/CcXgDvt9tabTz/9m0eOPLEXEUAAAQSqSYAALFEA9soGR3f/G5XzlREhnc7w7KhssJuG/zPL+ZJka73d3vro+effLUVcZmmj9yCAAAIITEGAACxXAO5dDchCqWWDay/d+rMpwuOBXf7qrz6Y6X0PHMgTCCCAAALLJUAAKiMASykbXG70OTsCCCCAwNIIEICKCcASygaXFnxOjAACCCCwPAIEoJoCsPfRwOfdlWFpdxtcXhQ6MwIIIIBA6QQIQKUFYO/nfAef5SWWDZYehE6IAAIIIFA+AQJQBwHYa2OJZYPlR6IzIoAAAgiUSoAA1EgA9pUNzvot/lKDy8kQQAABBKpLgADUSwDGZYPdNPzffGX4qjvtVXduaRkCCCBQaQIEoJ4CMBaBvOS7DVY6mDUOAQQQQGB6AgSg5gKwVzaYZ+Hf1n9w8zvTj7w9EUAAAQSiJkAAGiMAo4oBZYNRz2adRwABBAoQIACNEoB7ZYOrygYLzAK7IoAAAhESIABNFIC9PikbjHBG6zICCCAwJQEC0GAB2Csb7KbhTWWDU04IuyGAAAKxECAAzRaAcbXAvbLBUzunY4lt/UQAAQQQOIIAAYhDAO6JwEr49256/akjQsJLCCCAAAIxEOiloT9ODh7jkYHVLPw0hvjWRwQQQACBQwi4AhBP0v+G4KXh94eEhKcRQAABBGIgQAAIQAxxro8IIIAAAhMECAABmAgJmwgggAACMRAgAAQghjjXRwQQQACBCQIEgABMhIRNBBBAAIEYCBAAAhBDnOsjAggggMAEAQJAACZCwiYCCCCAQAwECAABiCHO9REBBBBAYIIAASAAEyFhEwEEEEAgBgIEgADEEOf6iAACCCAwQYAAEICJkLCJAAIIIBADAQJAAGKIc31EAAEEEJggQAAIwERI2EQAAQQQiIEAASAAMcS5PiKAAAIITBAgAARgIiRsIoAAAgjEQIAAEIAY4lwfEUAAAQQmCBAAAjAREjYRQAABBGIgQAAIQAxxro8IIIAAAhMECAABmAgJmwgggAACMRAgAAQghjjXRwQQQACBCQIEgABMhIRNBBBAAIEYCBAAAhBDnOsjAggggMAEAQJAACZCwiYCCCCAQAwECAABiCHO9REBBBBAYIIAASAAEyFhEwEEEEAgBgIEgADEEOf6iAACCCAwQYAAEICJkLCJAAIIIBADAQJAAGKIc31EAAEEEJggQAAIwERI2EQAAQQQiIEAASAAMcS5PiKAAAIITBAgAARgIiRsIoAAAgjEQIAAEIAY4lwfEUAAAQQmCBAAAjAREjYRQAABBGIgQAAIQAxxro8IIIAAAhMECAABmAgJmwgggAACMRAgAAQghjjXRwQQQACBCQIEgABMhIRNBBBAAIEYCBAAAhBDnOsjAggggMAEAQJAACZCwiYCCCCAQAwECAABiCHO9REBBBBAYIIAASAAEyFhEwEEEEAgBgIEgADEEOf6iAACCCAwQYAAEICJkLCJAAIIIBADAQJAAGKIc31EAAEEEJggQAAIwERI2EQAAQQQiIEAASAAMcS5PiKAAAIITBAgAARgIiRsIoAAAgjEQIAAEIAY4lwfEUAAAQQmCBAAAjAREjYRQAABBGIgQAAIQAxxro8IIIAAAhMECAABmAgJmwgggAACMRAgAAQghjjXRwQQQACBCQIEgABMhIRNBBBAAIEYCBAAAhBDnOsjAggggMAEAQJAACZCwiYCCCCAQAwECAABiCHO9REBBBBAYIIAASAAEyFhEwEEEEAgBgIEgADEEOf6iAACCCAwQYAAEICJkLCJAAIIIBADAQJAAGKIc31EAAEEEJggQAAIwERI2EQAAQQQiIEAASAAMcS5PiKAAAIITBAgAARgIiRsIoAAAgjEQIAAEIAY4lwfEUAAAQQmCBAAAjAREjYRQAABBGIgQAAIQAxxro8IIIAAAhMECAABmAgJmwgggAACMRAgAAQghjjXRwQQQACBCQIEgABMhIRNBBBAAIEYCBAAAhBDnOsjAggggMAEAQJAACZCwiYCCCCAQAwECAABiCHO9REBBBBAYIIAASAAEyFhEwEEEEAgBgLdle3He2no51mkiTDWfqfh9zHEtz4igAACCBxDoNcZXMiz8CkRiESECMAxM8LLCCCAQEQEkmTnTN4Jr3XTcJsINFwECEBEM1tXEUAAgSkJ9C7deLSXhn8mAQ2WAAIw5WywGwIIIBAhgTwN3++m4Q9EoIEiQAAinNG6jAACCBQgsLGxczpPB6/kWbhOBBokAgSgwCywKwIIIBAxgVc7w7OrWfhpNwtfEYEGiAABiHg26zoCCCAwA4FR2WBX2eBO7SWIAMwQ/d6CAAIIIHBK2WDNrwIQALMYAQQQQGBWAqOywdVs8DfKBmsoAwRg1rD3PgQQQACBMYHVzvDbygZrJgEEYBy+HhFAAAEETkpA2WCNJIAAnDTcvR8BBBBAYD+BUdng6sowVzZYcRkgAPvD1t8IIIAAAvMiMCobXEuVDVa2WoAAzCvUHQcBBBBA4CACygYreiWAABwUrp5DAAEEEJg3AWWDFRMBAjDvEHc8BBBAAIHDCOzebVDZYDV+RIgAHBamnkcAAQQQWBSBUdngauZug0v9fgABWFR4Oy4CCCCAwHEEVrPtc+42uKSPBgjAceHpdQQQQACBRRJQNkgAFhlfjo0AAgggUHECe2WDb7jbYElC4ApAxWeE5iGAAAKRERiVDfbcbXDxXxQkAJHNLN1FAAEEakJA2eCCrwQQgJrMBM1EAAEEIiQwLhvMs/CnpX5jPltwMl7G8QlAhDNKlxFAAIGaERiVDeZp+DkJmKOIEICazQLNRQABBCImMCob7HWGHxOBOYgAAYh4Juk6AgggUFMCq9kw72YhEIETiAABqGn0azYCCCAQOYFx2WCehi+JwAwiQAAin0G6jwACCNScwKhscDULmySgoAQQgJpHvuYjgAACCOwSUDZIAEwFBBBAAIFICYzKBtdWhj9WNjiFDLgCEOks0W0EEECgwQT2lQ1+7aOBQ2SAADR4BugaAgggEDkBZYOHJP/RDw8RgMhnh+4jgAACERBQNniACBCACCJfFxFAAAEETnU6w7PdzuAflA3uyQABMCsQQAABBGIioGyQAMQU7/qKAAIIIDBBIPqyQVcAJiLCJgIIIIBANASiLhskANHEuY4igAACCBxCIMqyQQJwSDR4GgEEEEAgOgJRlQ0SgOjiW4cRQAABBI4hsHbxRrfxdxskAMdEgZcRQAABBKIk0PiyQQIQZVzrNAIIIIDAlAR66fDP8zS817ifFCYAU0aA3RBAAAEEoibQuLJBAhB1POs8AggggEABAo0qGyQABUberggggAACCJw6daoRZYMEQCwjgAACCCAwG4Falw0SgNkG3bsQQAABBBAYExiVDeZpCLX6oiABGA+fRwQQQAABBGYnMCobzOt0t0ECMPtgeycCCCCAAAKTBGpTNkgAJofONgIIIIAAAicn0M2GrTwLn1b2YwECcPJBdgQEEEAAAQQOIlDpskECcNCQeQ4BBBBAAIH5ERiVDXY74ed5Fr6uzBUBAjC/AXYkBBBAAAEEjiJQqbJBAnDUUHkNAQQQQACB+RNY61SgbJAAzH9gHREBBBBAAIHjCCy9bJAAHDdEXkcAAQQQQGBxBJZWNkgAFjeojowAAggggMC0BEZlg900fFLalwQJwLRDYz8EEEAAAQQWS2BjY+d07+KNv86z8KeFiwABWOxgOjoCCCCAAAJFCZRSNkgAig6L/RFAAAEEECiHwELLBglAOYPoLAgggAACCMxKoLcSXp773QYJwKzD4X0IIIAAAgiUR2DuZYMEoLzBcyYEEEAAAQROSmBuZYME4KRD4f0IIIAAAgiUT+DEZYMEoPxBc0YEEEAAAQTmQWBUNtjtzFg2SADmMQSOgQACCCCAwPIIXH7x2iN5Z/BWobsNEoDlDZgzI4AAAgggME8ChcoGCcA80TsWAggggAACyycwKhvsZuHakb8mSACWP1BagAACCCCAwLwJjMoGu9mNv8/T8OWBIkAA5o3c8RBAAAEEEKgOgVHZYPdieO8BCSAA1RkkLUEAAQQQQGBRBB4oGyQAi0LtuAgggAACCFSLwDfKBglAtQZHaxBAAAEEEFg0gf9y+doj+crw1UWfx/ERQAABBBBAAAEEEEAAAQQQQAABBBBAAAEEEEAAAQQQQAABBBBAAAEEEEAAAQQQQAABBBBAAAEEEEAAAQQQQAABBBBAAAEEEEAAAQQQQAABBBBAAAEEEEAAAQQQQAABBBBAAAEEEEAAAQQQQAABBBBAAAEEEEAAAQQQQAABBBBAAAEEEEAAAQQQQAABBBBAAAEEEEAAAQQQQAABBBBAAAEEEEAAAQQQQAABBBBAAAEEEEAAAQQQQAABBBBAAAEEEEAAAQQQQAABBBBAAAEEEEAAAQQQQAABBBBAAAEEEEAAAQQQQAABBEoh8P8AZZSOyCCUcA0AAAAASUVORK5CYII=;movable=0;resizable=0;rotatable=0;deletable=0;editable=0;locked=1;connectable=0;" vertex="1" parent="1">
          <mxGeometry x="-1170" width="100" height="100" as="geometry" />
        </mxCell>
        <mxCell id="cQ8KKbzieFS9n6zauyxS-60" value="" style="shape=image;html=1;verticalAlign=top;verticalLabelPosition=bottom;labelBackgroundColor=#ffffff;imageAspect=0;aspect=fixed;image=https://cdn4.iconfinder.com/data/icons/ionicons/512/icon-social-github-128.png;movable=0;resizable=0;rotatable=0;deletable=0;editable=0;locked=1;connectable=0;" vertex="1" parent="1">
          <mxGeometry x="-1170" y="242" width="90" height="90" as="geometry" />
        </mxCell>
        <mxCell id="cQ8KKbzieFS9n6zauyxS-61" value="" style="sketch=0;points=[[0,0,0],[0.25,0,0],[0.5,0,0],[0.75,0,0],[1,0,0],[0,1,0],[0.25,1,0],[0.5,1,0],[0.75,1,0],[1,1,0],[0,0.25,0],[0,0.5,0],[0,0.75,0],[1,0.25,0],[1,0.5,0],[1,0.75,0]];points=[[0,0,0],[0.25,0,0],[0.5,0,0],[0.75,0,0],[1,0,0],[0,1,0],[0.25,1,0],[0.5,1,0],[0.75,1,0],[1,1,0],[0,0.25,0],[0,0.5,0],[0,0.75,0],[1,0.25,0],[1,0.5,0],[1,0.75,0]];outlineConnect=0;fontColor=#232F3E;fillColor=#E7157B;strokeColor=#ffffff;dashed=0;verticalLabelPosition=bottom;verticalAlign=top;align=center;html=1;fontSize=12;fontStyle=0;aspect=fixed;shape=mxgraph.aws4.resourceIcon;resIcon=mxgraph.aws4.cloudformation;movable=0;resizable=0;rotatable=0;deletable=0;editable=0;locked=1;connectable=0;" vertex="1" parent="1">
          <mxGeometry x="-960" y="242" width="78" height="78" as="geometry" />
        </mxCell>
        <mxCell id="cQ8KKbzieFS9n6zauyxS-62" value="" style="outlineConnect=0;dashed=0;verticalLabelPosition=bottom;verticalAlign=top;align=center;html=1;shape=mxgraph.aws3.android;fillColor=#FFD44F;gradientColor=none;movable=0;resizable=0;rotatable=0;deletable=0;editable=0;locked=1;connectable=0;" vertex="1" parent="1">
          <mxGeometry x="-1156.75" y="436" width="73.5" height="84" as="geometry" />
        </mxCell>
        <mxCell id="cQ8KKbzieFS9n6zauyxS-64" value="" style="html=1;endArrow=none;elbow=vertical;startArrow=block;startFill=1;strokeColor=#545B64;rounded=0;entryX=0.5;entryY=1;entryDx=0;entryDy=0;exitX=0.5;exitY=0;exitDx=0;exitDy=0;movable=0;resizable=0;rotatable=0;deletable=0;editable=0;locked=1;connectable=0;" edge="1" parent="1" source="cQ8KKbzieFS9n6zauyxS-60" target="cQ8KKbzieFS9n6zauyxS-59">
          <mxGeometry width="100" relative="1" as="geometry">
            <mxPoint x="-1120" y="240" as="sourcePoint" />
            <mxPoint x="-1020" y="240" as="targetPoint" />
          </mxGeometry>
        </mxCell>
        <mxCell id="cQ8KKbzieFS9n6zauyxS-66" value="" style="html=1;endArrow=none;elbow=vertical;startArrow=block;startFill=1;strokeColor=#545B64;rounded=0;exitX=0.5;exitY=1;exitDx=0;exitDy=0;movable=0;resizable=0;rotatable=0;deletable=0;editable=0;locked=1;connectable=0;" edge="1" parent="1" source="cQ8KKbzieFS9n6zauyxS-60">
          <mxGeometry width="100" relative="1" as="geometry">
            <mxPoint x="-1220" y="410" as="sourcePoint" />
            <mxPoint x="-1120" y="430" as="targetPoint" />
          </mxGeometry>
        </mxCell>
        <mxCell id="cQ8KKbzieFS9n6zauyxS-68" value="" style="html=1;endArrow=none;elbow=vertical;startArrow=block;startFill=1;strokeColor=#545B64;rounded=0;entryX=0;entryY=0.5;entryDx=0;entryDy=0;entryPerimeter=0;movable=0;resizable=0;rotatable=0;deletable=0;editable=0;locked=1;connectable=0;" edge="1" parent="1" source="cQ8KKbzieFS9n6zauyxS-60" target="cQ8KKbzieFS9n6zauyxS-61">
          <mxGeometry width="100" relative="1" as="geometry">
            <mxPoint x="-1080" y="287" as="sourcePoint" />
            <mxPoint x="-980" y="287" as="targetPoint" />
          </mxGeometry>
        </mxCell>
        <mxCell id="cQ8KKbzieFS9n6zauyxS-70" value="" style="html=1;endArrow=block;elbow=vertical;startArrow=none;endFill=1;strokeColor=#545B64;rounded=0;movable=0;resizable=0;rotatable=0;deletable=0;editable=0;locked=1;connectable=0;" edge="1" parent="1">
          <mxGeometry width="100" relative="1" as="geometry">
            <mxPoint x="-1070" y="20" as="sourcePoint" />
            <mxPoint x="-860" y="-130" as="targetPoint" />
          </mxGeometry>
        </mxCell>
        <mxCell id="cQ8KKbzieFS9n6zauyxS-75" value="" style="html=1;endArrow=block;elbow=vertical;startArrow=none;endFill=1;strokeColor=#545B64;rounded=0;movable=0;resizable=0;rotatable=0;deletable=0;editable=0;locked=1;connectable=0;" edge="1" parent="1" source="cQ8KKbzieFS9n6zauyxS-59">
          <mxGeometry width="100" relative="1" as="geometry">
            <mxPoint x="-1060" y="120" as="sourcePoint" />
            <mxPoint x="-960" y="230" as="targetPoint" />
          </mxGeometry>
        </mxCell>
        <mxCell id="cQ8KKbzieFS9n6zauyxS-77" value="" style="html=1;endArrow=block;elbow=vertical;startArrow=none;endFill=1;strokeColor=#545B64;rounded=0;entryX=0;entryY=0.75;entryDx=0;entryDy=0;movable=0;resizable=0;rotatable=0;deletable=0;editable=0;locked=1;connectable=0;" edge="1" parent="1" target="cQ8KKbzieFS9n6zauyxS-16">
          <mxGeometry width="100" relative="1" as="geometry">
            <mxPoint x="-870" y="280" as="sourcePoint" />
            <mxPoint x="-770" y="280" as="targetPoint" />
          </mxGeometry>
        </mxCell>
        <mxCell id="cQ8KKbzieFS9n6zauyxS-78" value="" style="html=1;endArrow=block;elbow=vertical;startArrow=none;endFill=1;strokeColor=#545B64;rounded=0;entryX=0;entryY=0.5;entryDx=0;entryDy=0;movable=0;resizable=0;rotatable=0;deletable=0;editable=0;locked=1;connectable=0;" edge="1" parent="1" target="cQ8KKbzieFS9n6zauyxS-23">
          <mxGeometry width="100" relative="1" as="geometry">
            <mxPoint x="-870" y="280" as="sourcePoint" />
            <mxPoint x="-400" y="115" as="targetPoint" />
          </mxGeometry>
        </mxCell>
        <mxCell id="cQ8KKbzieFS9n6zauyxS-81" value="" style="edgeStyle=orthogonalEdgeStyle;html=1;endArrow=block;elbow=vertical;startArrow=none;endFill=1;strokeColor=#545B64;rounded=0;entryX=0;entryY=0.5;entryDx=0;entryDy=0;entryPerimeter=0;exitX=0.5;exitY=1;exitDx=0;exitDy=0;exitPerimeter=0;movable=0;resizable=0;rotatable=0;deletable=0;editable=0;locked=1;connectable=0;" edge="1" parent="1" source="cQ8KKbzieFS9n6zauyxS-61" target="cQ8KKbzieFS9n6zauyxS-44">
          <mxGeometry width="100" relative="1" as="geometry">
            <mxPoint x="-990" y="380" as="sourcePoint" />
            <mxPoint x="-890" y="380" as="targetPoint" />
          </mxGeometry>
        </mxCell>
        <mxCell id="cQ8KKbzieFS9n6zauyxS-82" value="Github Integration(Terraform + CloudFormation + Python Boto3)" style="text;html=1;align=center;verticalAlign=middle;whiteSpace=wrap;rounded=0;movable=0;resizable=0;rotatable=0;deletable=0;editable=0;locked=1;connectable=0;" vertex="1" parent="1">
          <mxGeometry x="-1270" y="320" width="120" height="30" as="geometry" />
        </mxCell>
        <mxCell id="cQ8KKbzieFS9n6zauyxS-83" value="cloudFormation Template for all compute and storage components" style="text;html=1;align=center;verticalAlign=middle;whiteSpace=wrap;rounded=0;movable=0;resizable=0;rotatable=0;deletable=0;editable=0;locked=1;connectable=0;" vertex="1" parent="1">
          <mxGeometry x="-951" y="190" width="60" height="30" as="geometry" />
        </mxCell>
        <mxCell id="cQ8KKbzieFS9n6zauyxS-84" value="Terraform for all Networking Components" style="text;html=1;align=center;verticalAlign=middle;whiteSpace=wrap;rounded=0;movable=0;resizable=0;rotatable=0;deletable=0;editable=0;locked=1;connectable=0;" vertex="1" parent="1">
          <mxGeometry x="-1070" y="50" width="60" height="30" as="geometry" />
        </mxCell>
        <mxCell id="cQ8KKbzieFS9n6zauyxS-85" value="Boto3 for AWS interaction programmatically" style="text;html=1;align=center;verticalAlign=middle;whiteSpace=wrap;rounded=0;movable=0;resizable=0;rotatable=0;deletable=0;editable=0;locked=1;connectable=0;" vertex="1" parent="1">
          <mxGeometry x="-1150" y="535" width="60" height="30" as="geometry" />
        </mxCell>
        <mxCell id="cQ8KKbzieFS9n6zauyxS-86" value="" style="html=1;endArrow=block;elbow=vertical;startArrow=none;endFill=1;strokeColor=#545B64;rounded=0;movable=0;resizable=0;rotatable=0;deletable=0;editable=0;locked=1;connectable=0;" edge="1" parent="1">
          <mxGeometry width="100" relative="1" as="geometry">
            <mxPoint x="-1083.25" y="477.5" as="sourcePoint" />
            <mxPoint x="-1000" y="480" as="targetPoint" />
          </mxGeometry>
        </mxCell>
        <mxCell id="cQ8KKbzieFS9n6zauyxS-87" value="" style="sketch=0;points=[[0,0,0],[0.25,0,0],[0.5,0,0],[0.75,0,0],[1,0,0],[0,1,0],[0.25,1,0],[0.5,1,0],[0.75,1,0],[1,1,0],[0,0.25,0],[0,0.5,0],[0,0.75,0],[1,0.25,0],[1,0.5,0],[1,0.75,0]];points=[[0,0,0],[0.25,0,0],[0.5,0,0],[0.75,0,0],[1,0,0],[0,1,0],[0.25,1,0],[0.5,1,0],[0.75,1,0],[1,1,0],[0,0.25,0],[0,0.5,0],[0,0.75,0],[1,0.25,0],[1,0.5,0],[1,0.75,0]];outlineConnect=0;fontColor=#232F3E;fillColor=#E7157B;strokeColor=#ffffff;dashed=0;verticalLabelPosition=bottom;verticalAlign=top;align=center;html=1;fontSize=12;fontStyle=0;aspect=fixed;shape=mxgraph.aws4.resourceIcon;resIcon=mxgraph.aws4.command_line_interface;movable=0;resizable=0;rotatable=0;deletable=0;editable=0;locked=1;connectable=0;" vertex="1" parent="1">
          <mxGeometry x="-1159" y="600" width="78" height="78" as="geometry" />
        </mxCell>
        <mxCell id="cQ8KKbzieFS9n6zauyxS-88" value="" style="html=1;endArrow=block;elbow=vertical;startArrow=none;endFill=1;strokeColor=#545B64;rounded=0;movable=0;resizable=0;rotatable=0;deletable=0;editable=0;locked=1;connectable=0;" edge="1" parent="1">
          <mxGeometry width="100" relative="1" as="geometry">
            <mxPoint x="-1081.62" y="637.75" as="sourcePoint" />
            <mxPoint x="-998.37" y="640.25" as="targetPoint" />
          </mxGeometry>
        </mxCell>
        <mxCell id="cQ8KKbzieFS9n6zauyxS-89" value="AWS CLI" style="text;html=1;align=center;verticalAlign=middle;whiteSpace=wrap;rounded=0;movable=0;resizable=0;rotatable=0;deletable=0;editable=0;locked=1;connectable=0;" vertex="1" parent="1">
          <mxGeometry x="-1150" y="680" width="60" height="30" as="geometry" />
        </mxCell>
        <mxCell id="cQ8KKbzieFS9n6zauyxS-90" value="AWS Cloud Nisarg" style="points=[[0,0],[0.25,0],[0.5,0],[0.75,0],[1,0],[1,0.25],[1,0.5],[1,0.75],[1,1],[0.75,1],[0.5,1],[0.25,1],[0,1],[0,0.75],[0,0.5],[0,0.25]];outlineConnect=0;gradientColor=none;html=1;whiteSpace=wrap;fontSize=12;fontStyle=0;container=1;pointerEvents=0;collapsible=0;recursiveResize=0;shape=mxgraph.aws4.group;grIcon=mxgraph.aws4.group_aws_cloud_alt;strokeColor=#232F3E;fillColor=none;verticalAlign=top;align=left;spacingLeft=30;fontColor=#232F3E;dashed=0;movable=0;resizable=0;rotatable=0;deletable=0;editable=0;locked=1;connectable=0;" vertex="1" parent="1">
          <mxGeometry x="-1000" y="-440" width="1920" height="1680" as="geometry" />
        </mxCell>
        <mxCell id="cQ8KKbzieFS9n6zauyxS-91" value="AWS Project Architecture (Nisarg Patel)" style="text;html=1;align=center;verticalAlign=middle;whiteSpace=wrap;rounded=0;movable=0;resizable=0;rotatable=0;deletable=0;editable=0;locked=1;connectable=0;" vertex="1" parent="1">
          <mxGeometry x="-136.5" y="1260" width="275" height="30" as="geometry" />
        </mxCell>
      </root>
    </mxGraphModel>
  </diagram>
</mxfile>
